PathFileType  4	(X/Y/Z) C:\Users\antoi\Documents\MyRepositories\mobilecap\ResultsAnalysis
DataRate	CameraRate	NumFrames	NumMarkers	Units	OrigDataRate	OrigDataStartFrame	OrigNumFrames
100.0	100.0	4	51	mm	100.0	675	1349
Frame#	Time	r_knee			r_shank_antsup			r_ankle			r_calc			r_5meta			r_toe			L_knee			L_shank_antsup			L_ankle			L_calc			L_5meta			L_toe			r_sh2			r_sh3			r_sh4			L_sh2			L_sh3			r_thigh1			r_thigh2			r_thigh3			r_thigh4			r_thigh5			L_thigh1			L_thigh2			L_thigh3			L_thigh4			r.ASIS			r.PSIS			L.ASIS			L.PSIS			C7			R_Shoulder			L_Shoulder			R_Sternum			L_Sternum			R_humerus			R_elbow_med			R_elbow_lat			R_forearm			R_wrist_radius			R_wrist_ulna			L_humerus			L_elbow_med			L_elbow_lat			L_forearm			L_wrist_radius			L_wrist_ulna			R_HJC			L_HJC			R_HJC_reg			L_HJC_reg			
		X1	Y1	Z1	X2	Y2	Z2	X3	Y3	Z3	X4	Y4	Z4	X5	Y5	Z5	X6	Y6	Z6	X7	Y7	Z7	X8	Y8	Z8	X9	Y9	Z9	X10	Y10	Z10	X11	Y11	Z11	X12	Y12	Z12	X13	Y13	Z13	X14	Y14	Z14	X15	Y15	Z15	X16	Y16	Z16	X17	Y17	Z17	X18	Y18	Z18	X19	Y19	Z19	X20	Y20	Z20	X21	Y21	Z21	X22	Y22	Z22	X23	Y23	Z23	X24	Y24	Z24	X25	Y25	Z25	X26	Y26	Z26	X27	Y27	Z27	X28	Y28	Z28	X29	Y29	Z29	X30	Y30	Z30	X31	Y31	Z31	X32	Y32	Z32	X33	Y33	Z33	X34	Y34	Z34	X35	Y35	Z35	X36	Y36	Z36	X37	Y37	Z37	X38	Y38	Z38	X39	Y39	Z39	X40	Y40	Z40	X41	Y41	Z41	X42	Y42	Z42	X43	Y43	Z43	X44	Y44	Z44	X45	Y45	Z45	X46	Y46	Z46	X47	Y47	Z47	X48	Y48	Z48	X49	Y49	Z49	X50	Y50	Z50	X51	Y51	Z51	

675	6.74000000	-119.64708	493.26776	-355.12433	-83.80391	366.93299	-369.06088	-283.72762	98.81449	-425.35205	-347.49523	66.88515	-482.09478	-168.75763	36.64119	-353.88062	-120.24588	60.43782	-419.30282	-149.23653	489.69695	-967.99089	-96.15173	383.67129	-959.42449	-285.10927	92.60466	-905.46645	-348.17065	69.13491	-845.54607	-155.39755	33.80387	-951.94993	-116.80765	59.83927	-887.50654	-122.71597	263.47435	-408.47391	-151.62904	376.53036	-333.76960	-184.70426	265.01530	-351.83176	-178.65515	408.48103	-987.85521	-199.67349	288.55758	-987.52864	-286.52258	668.27204	-447.43955	-182.34478	635.78312	-420.81164	-181.56981	605.83501	-360.48321	-328.02544	604.58603	-362.08943	-215.73477	564.04438	-345.14621	-338.58280	659.75931	-887.34066	-214.38596	624.36889	-932.28235	-383.66351	568.98734	-936.34327	-255.77869	526.41024	-970.30029	-393.43163	697.24157	-534.52552	-485.12418	771.56458	-599.55588	-384.51311	667.64665	-796.80078	-489.38247	769.46277	-695.51901	-97.83008	1073.74131	-652.62372	-21.38707	970.71685	-482.33075	-25.20131	987.11394	-811.88975	-18.72009	926.84849	-636.94937	-22.80570	922.43330	-670.20713	42.88252	854.27202	-415.30079	65.00293	613.26875	-430.84751	114.01501	667.35656	-372.43685	186.60584	786.07132	-462.23784	248.69058	856.47727	-526.51394	286.87185	838.26365	-526.00926	39.73525	868.99427	-891.65332	75.60782	639.03389	-880.67179	117.25731	689.61946	-933.46686	164.98253	791.85844	-815.15648	233.22983	857.06206	-753.77547	274.95346	838.22024	-768.93874	-467.19493	637.20684	-554.17784	-479.96655	618.28763	-766.34550	-475.04112	643.20628	-566.41998	-482.76623	639.39362	-740.50570	
676	6.75000000	-120.24923	493.97665	-356.03134	-84.55038	367.50709	-369.73406	-283.85816	98.80834	-425.37555	-347.57031	66.81081	-481.98632	-168.75896	36.62841	-353.87682	-120.35122	60.42494	-419.29758	-149.71203	490.53949	-966.63642	-96.71320	384.32111	-958.24029	-285.23522	92.75780	-905.43481	-348.23696	69.11354	-845.56388	-155.38324	33.88553	-951.86653	-116.85253	59.87701	-887.43324	-123.20416	263.95978	-408.65745	-152.36615	377.10674	-334.26933	-185.13051	265.28653	-352.32435	-179.17908	409.05400	-986.67210	-200.11168	289.33873	-987.15494	-285.06405	671.73230	-447.21633	-181.19763	637.73675	-420.83896	-180.78218	607.53415	-360.71125	-327.13846	608.02119	-362.20007	-215.54323	566.14281	-345.56492	-337.21687	663.66721	-887.01592	-213.28806	626.36306	-931.48905	-383.27332	573.23598	-935.79850	-255.82886	528.90683	-969.42444	-391.81014	702.65744	-534.03644	-484.36948	778.21550	-599.30227	-383.70959	673.63747	-796.40578	-488.75550	776.18879	-695.41094	-99.14840	1081.93246	-652.33383	-22.51332	979.00743	-482.01703	-26.39604	995.66697	-811.52361	-19.48973	935.57986	-636.87072	-22.99235	931.84232	-670.91255	41.89050	862.39748	-414.95955	64.26999	621.08104	-430.84888	112.98264	675.36409	-372.35164	185.55869	794.21162	-461.97010	247.53377	864.73449	-526.27767	285.75673	846.58784	-525.62263	38.45103	877.41504	-891.32014	74.00267	647.29561	-880.57707	115.70165	697.88089	-933.59948	163.60076	800.02259	-815.08687	232.00612	865.03198	-753.06067	273.56614	846.30774	-768.77571	-466.42251	643.42727	-553.89610	-479.45136	624.68546	-766.06393	-474.02473	649.29293	-565.89434	-481.96882	645.62244	-739.97620	
677	6.76000000	-120.87902	494.78864	-356.77302	-85.27209	368.06796	-370.40058	-283.98614	98.83118	-425.36673	-347.65605	66.73424	-481.94218	-168.73154	36.68584	-353.88392	-120.39019	60.49064	-419.32299	-150.16967	491.26154	-964.98167	-97.23463	385.07134	-957.27133	-285.35095	92.90680	-905.38418	-348.26728	69.10473	-845.58122	-155.35716	33.95164	-951.81043	-116.89283	59.89037	-887.34236	-123.60565	264.40406	-408.84733	-153.13734	377.76134	-334.59575	-185.47697	265.51344	-352.73940	-179.72572	409.69147	-985.62638	-200.46710	290.08844	-986.67281	-283.48607	675.10906	-447.05323	-180.04773	639.55847	-421.07826	-179.94732	609.18385	-360.93476	-326.34047	611.59041	-362.30816	-215.30233	568.23519	-345.89389	-335.69773	667.61314	-886.77953	-211.96855	628.34597	-930.62937	-382.73161	577.50251	-935.26878	-255.77923	531.43132	-968.43281	-390.15399	707.95361	-533.46416	-483.50741	784.99402	-598.95661	-382.89948	679.65759	-795.94046	-488.00028	783.08594	-695.34121	-100.47821	1090.21750	-651.97438	-23.64623	987.29949	-481.73510	-27.66463	1004.38977	-811.23962	-20.30215	944.35304	-636.68665	-25.53351	939.00841	-668.94738	40.79320	870.62469	-414.63287	63.80337	628.78189	-430.80466	111.91857	683.54137	-372.22991	184.42394	802.55801	-461.68893	246.33152	873.03961	-526.12756	284.68023	855.12948	-525.22089	37.08800	885.91773	-890.95474	72.44668	655.46614	-878.91799	114.10060	706.21174	-933.43903	162.16969	808.39157	-815.01339	230.69541	873.42002	-753.25179	272.13329	854.47833	-768.56405	-465.76224	649.70824	-553.60710	-479.00993	631.24905	-765.78619	-473.09199	655.44589	-565.33399	-481.20651	652.00013	-739.41552	
678	6.77000000	-121.47977	495.64954	-357.40844	-85.95551	368.69723	-370.94576	-284.10395	98.85887	-425.32943	-347.70830	66.70153	-481.89180	-168.71632	36.73782	-353.89664	-120.36833	60.58193	-419.35289	-150.54799	492.00383	-963.32204	-97.69697	385.73691	-956.17463	-285.41502	92.99554	-905.33272	-348.27654	69.09243	-845.60638	-155.33661	34.00319	-951.78946	-116.90298	59.90123	-887.26034	-124.03339	264.82539	-409.15289	-153.90181	378.33051	-335.02562	-186.21543	266.21443	-352.69128	-180.27248	410.37861	-984.54721	-200.71694	290.58080	-985.78517	-281.75254	678.50311	-446.97313	-178.89473	641.33064	-421.31822	-179.07648	610.86703	-361.13904	-325.46094	615.06495	-362.52360	-214.92832	570.31206	-346.22878	-334.03204	671.47700	-886.55422	-210.48344	630.16526	-929.58775	-381.99695	581.87597	-935.02574	-255.62413	534.00126	-967.61972	-388.19412	713.35177	-533.07319	-482.59414	791.71053	-598.64550	-381.41646	686.60818	-795.72742	-487.04535	790.15513	-695.36167	-101.89703	1098.57663	-651.50141	-24.88409	995.57197	-481.31774	-29.05920	1013.22441	-810.95856	-21.24025	953.05544	-636.13563	-28.05056	946.17892	-666.69453	39.62154	878.93971	-414.40155	62.68281	637.15672	-430.69985	110.81079	691.87710	-372.08307	183.20351	811.06411	-461.43156	245.18759	881.48643	-525.85046	283.54354	863.65703	-525.01228	35.70321	894.49626	-890.73680	70.91224	663.90439	-877.86368	112.53243	714.77428	-933.27362	160.65382	816.90586	-814.94930	229.30120	881.94154	-753.29826	270.77406	862.89945	-768.63284	-464.54757	655.85565	-553.75538	-477.71408	638.25585	-766.01112	-471.65955	661.50678	-565.22052	-479.67256	658.70607	-739.31932	
